<svg width="11" height="11" viewBox="0 0 11 11" fill="none" xmlns="http://www.w3.org/2000/svg">
<path d="M7.91134 0.231062L2.65167 1.97903C-0.883891 3.16182 -0.883891 5.09041 2.65167 6.26738L4.21268 6.78594L4.73108 8.34746C5.90766 11.8842 7.84144 11.8842 9.01802 8.34746L10.7712 3.0919C11.5517 0.732146 10.2703 -0.555524 7.91134 0.231062ZM8.09773 3.36575L5.88436 5.5915C5.79699 5.67889 5.68632 5.71968 5.57565 5.71968C5.46498 5.71968 5.35432 5.67889 5.26695 5.5915C5.1857 5.50926 5.14014 5.3983 5.14014 5.28269C5.14014 5.16707 5.1857 5.05612 5.26695 4.97388L7.48031 2.74814C7.64923 2.57917 7.92881 2.57917 8.09773 2.74814C8.26664 2.91711 8.26664 3.19678 8.09773 3.36575Z" fill="white"/>
</svg>
