<svg width="14" height="14" viewBox="0 0 14 14" fill="none" xmlns="http://www.w3.org/2000/svg">
<path d="M8.91134 3.23106L3.65167 4.97903C0.116109 6.16182 0.116109 8.09041 3.65167 9.26738L5.21268 9.78594L5.73108 11.3475C6.90766 14.8842 8.84144 14.8842 10.018 11.3475L11.7712 6.0919C12.5517 3.73215 11.2703 2.44448 8.91134 3.23106ZM9.09773 6.36575L6.88436 8.5915C6.79699 8.67889 6.68632 8.71968 6.57565 8.71968C6.46498 8.71968 6.35432 8.67889 6.26695 8.5915C6.1857 8.50926 6.14014 8.3983 6.14014 8.28269C6.14014 8.16707 6.1857 8.05612 6.26695 7.97388L8.48031 5.74814C8.64923 5.57917 8.92881 5.57917 9.09773 5.74814C9.26664 5.91711 9.26664 6.19678 9.09773 6.36575Z" fill="#B0B0B0"/>
<path d="M1 1L13.5 13.5" stroke="#B0B0B0"/>
</svg>
