<svg width="19" height="20" viewBox="0 0 19 20" fill="none" xmlns="http://www.w3.org/2000/svg">
<path d="M15.3418 4C14.7479 4 14.2027 3.65 13.9301 3.11L13.2291 1.66C12.7812 0.75 11.6129 0 10.6199 0H8.39035C7.38755 0 6.21925 0.75 5.7714 1.66L5.07042 3.11C4.79781 3.65 4.25261 4 3.65872 4C1.54604 4 -0.128533 5.83 0.00776926 7.99L0.514034 16.25C0.630865 18.31 1.71155 20 4.39864 20H14.6018C17.2889 20 18.3599 18.31 18.4864 16.25L18.9927 7.99C19.0243 7.47783 18.9532 6.96446 18.7839 6.48161C18.6147 5.99876 18.3508 5.5567 18.0086 5.18275C17.6665 4.80879 17.2533 4.51089 16.7945 4.30746C16.3358 4.10403 15.8414 3.99939 15.3418 4ZM8.03986 5.25H10.9606C11.3598 5.25 11.6908 5.59 11.6908 6C11.6908 6.41 11.3598 6.75 10.9606 6.75H8.03986C7.64069 6.75 7.30967 6.41 7.30967 6C7.30967 5.59 7.64069 5.25 8.03986 5.25ZM9.50024 16.12C7.68937 16.12 6.20951 14.61 6.20951 12.74C6.20951 10.87 7.67963 9.36 9.50024 9.36C11.3208 9.36 12.791 10.87 12.791 12.74C12.791 14.61 11.3111 16.12 9.50024 16.12Z" fill="white"/>
</svg>
