<svg width="22" height="22" viewBox="0 0 22 22" fill="none" xmlns="http://www.w3.org/2000/svg">
<path d="M14.718 13.343C14.949 12.958 15.466 12.837 15.851 13.079C16.236 13.321 16.357 13.827 16.115 14.212C14.993 15.983 13.09 17.05 11 17.05C8.91 17.05 7.007 15.994 5.885 14.201C5.643 13.816 5.764 13.31 6.149 13.068C6.534 12.826 7.04 12.947 7.282 13.332C8.096 14.63 9.482 15.4 11 15.4C12.518 15.4 13.904 14.63 14.718 13.343Z" fill="#8345FF" fill-opacity="0.5"/>
<path d="M7.15 9.9C8.06127 9.9 8.8 9.16127 8.8 8.25C8.8 7.33873 8.06127 6.6 7.15 6.6C6.23873 6.6 5.5 7.33873 5.5 8.25C5.5 9.16127 6.23873 9.9 7.15 9.9Z" fill="#8345FF" fill-opacity="0.5"/>
<path d="M14.85 9.9C15.7613 9.9 16.5 9.16127 16.5 8.25C16.5 7.33873 15.7613 6.6 14.85 6.6C13.9387 6.6 13.2 7.33873 13.2 8.25C13.2 9.16127 13.9387 9.9 14.85 9.9Z" fill="#8345FF" fill-opacity="0.5"/>
<path fill-rule="evenodd" clip-rule="evenodd" d="M0 11C0 4.928 4.917 0 10.989 0C17.072 0 22 4.928 22 11C22 17.072 17.072 22 10.989 22C4.917 22 0 17.072 0 11ZM2.2 11C2.2 15.862 6.138 19.8 11 19.8C15.862 19.8 19.8 15.862 19.8 11C19.8 6.138 15.862 2.2 11 2.2C6.138 2.2 2.2 6.138 2.2 11Z" fill="#8345FF" fill-opacity="0.5"/>
</svg>
