<svg width="17" height="22" viewBox="0 0 17 22" fill="none" xmlns="http://www.w3.org/2000/svg">
<path d="M8.50594 14.3878C10.87 14.3878 12.4619 12.8488 12.4619 10.6488V3.73897C12.4619 1.52864 10.87 0 8.50594 0C6.12998 0 4.53809 1.52864 4.53809 3.73897V10.6488C4.53809 12.8488 6.12998 14.3878 8.50594 14.3878ZM0 10.8141C0 14.8629 3.07687 17.7033 7.60307 18.0338V20.4404H3.19567C2.69672 20.4404 2.2928 20.7915 2.2928 21.2254C2.2928 21.6592 2.69672 22 3.19567 22H13.8043C14.3033 22 14.7072 21.6592 14.7072 21.2254C14.7072 20.7915 14.3033 20.4404 13.8043 20.4404H9.39693V18.0338C13.935 17.7033 17 14.8629 17 10.8141V8.71737C17 8.28357 16.608 7.94272 16.109 7.94272C15.6101 7.94272 15.2061 8.28357 15.2061 8.71737V10.7521C15.2061 14.2742 12.5688 16.6085 8.50594 16.6085C4.43117 16.6085 1.79385 14.2742 1.79385 10.7521V8.71737C1.79385 8.28357 1.40182 7.94272 0.890985 7.94272C0.392034 7.94272 0 8.28357 0 8.71737V10.8141Z" fill="#8345FF" fill-opacity="0.5"/>
</svg>
