<svg width="22" height="22" viewBox="0 0 22 22" fill="none" xmlns="http://www.w3.org/2000/svg">
<path d="M1.66992 17.95L6.59992 14.64C7.38992 14.11 8.52992 14.17 9.23992 14.78L9.56992 15.07C10.3499 15.74 11.6099 15.74 12.3899 15.07L16.5499 11.5C17.3299 10.83 18.5899 10.83 19.3699 11.5L20.9999 12.9M8 21H14C19 21 21 19 21 14V8C21 3 19 1 14 1H8C3 1 1 3 1 8V14C1 19 3 21 8 21ZM7.99992 9C8.53035 9 9.03906 8.78929 9.41413 8.41421C9.78921 8.03914 9.99992 7.53043 9.99992 7C9.99992 6.46957 9.78921 5.96086 9.41413 5.58579C9.03906 5.21071 8.53035 5 7.99992 5C7.46949 5 6.96078 5.21071 6.58571 5.58579C6.21064 5.96086 5.99992 6.46957 5.99992 7C5.99992 7.53043 6.21064 8.03914 6.58571 8.41421C6.96078 8.78929 7.46949 9 7.99992 9Z" stroke="#8345FF" stroke-opacity="0.4" stroke-width="2" stroke-linecap="round" stroke-linejoin="round"/>
</svg>
