<svg width="22" height="22" viewBox="0 0 22 22" fill="none" xmlns="http://www.w3.org/2000/svg">
<path d="M18.4604 6.73381L7.94003 1.50193C0.873168 -2.01859 -2.02732 0.866279 1.51226 7.8951L2.5815 10.0221C2.88876 10.6455 2.88876 11.3667 2.5815 11.9901L1.51226 14.1049C-2.02732 21.1337 0.860877 24.0186 7.94003 20.4981L18.4604 15.2662C23.1799 12.9192 23.1799 9.08083 18.4604 6.73381ZM14.4907 11.9168H7.85399C7.3501 11.9168 6.93223 11.5012 6.93223 11C6.93223 10.4988 7.3501 10.0832 7.85399 10.0832H14.4907C14.9946 10.0832 15.4125 10.4988 15.4125 11C15.4125 11.5012 14.9946 11.9168 14.4907 11.9168Z" fill="#8345FF" fill-opacity="0.5"/>
</svg>
