<svg width="209" height="29" viewBox="0 0 209 29" fill="none" xmlns="http://www.w3.org/2000/svg">
<path d="M51.7126 22.8047C52.5785 22.8047 53.3305 22.4857 53.9685 21.8477C54.6065 21.2096 54.9255 20.321 54.9255 19.1816V9.88477C54.9255 8.74544 54.6065 7.85677 53.9685 7.21875C53.3305 6.55794 52.5785 6.22754 51.7126 6.22754H48.8416V22.8047H51.7126ZM51.7126 28H43.0652V1.06641H51.7126C54.6977 1.06641 56.9421 1.88672 58.446 3.52734C59.95 5.14518 60.7019 7.49219 60.7019 10.5684V18.4639C60.7019 21.54 59.95 23.8984 58.446 25.5391C56.9421 27.1797 54.6977 28 51.7126 28ZM65.4597 1.06641H71.2361V28H65.4597V1.06641ZM88.3669 1.06641H94.1433C94.1433 1.06641 94.1433 10.0443 94.1433 28H89.0847L83.0691 15.9688L82.3513 11.9014H82.2488V28H76.4724C76.4724 28 76.4724 19.0221 76.4724 1.06641H81.5652L87.5125 12.9609L88.2644 16.4473H88.3669V1.06641ZM107.959 23.3516C108.688 23.3516 109.383 23.1237 110.044 22.668C110.705 22.1895 111.046 21.5173 111.069 20.6514V14.7041H116.845V28H111.069V26.3936C109.93 27.8063 108.312 28.5127 106.216 28.5127C103.869 28.5127 102.046 27.6924 100.747 26.0518C99.4708 24.3883 98.8328 22.0413 98.8328 19.0107V10.0557C98.8328 6.97949 99.5847 4.62109 101.089 2.98047C102.615 1.33984 104.871 0.519531 107.856 0.519531C110.272 0.519531 112.243 1.05501 113.769 2.12598C115.319 3.17415 116.333 4.68945 116.811 6.67188L111.343 8.55176C111.206 7.66309 110.784 6.9681 110.078 6.4668C109.372 5.96549 108.631 5.71484 107.856 5.71484C106.99 5.71484 106.227 6.03385 105.566 6.67188C104.928 7.3099 104.609 8.19857 104.609 9.33789V19.6943C104.609 20.8337 104.951 21.7337 105.635 22.3945C106.318 23.0326 107.093 23.3516 107.959 23.3516Z" fill="#FB2D90"/>
<path d="M138.454 28H133.532L133.259 26.3594C131.937 27.7721 130.274 28.4785 128.268 28.4785C126.377 28.4785 124.725 27.7949 123.312 26.4277C121.922 25.0605 121.227 23.1465 121.227 20.6855V14.3281C121.227 11.8672 121.922 9.95312 123.312 8.58594C124.725 7.19596 126.377 6.50098 128.268 6.50098C130.046 6.50098 131.572 7.07064 132.848 8.20996V1.75H138.454V28ZM126.833 20.3438C126.833 21.3236 127.129 22.0983 127.721 22.668C128.314 23.2148 129.02 23.4883 129.841 23.4883C130.661 23.4883 131.367 23.2148 131.96 22.668C132.552 22.0983 132.848 21.3236 132.848 20.3438V14.6699C132.848 13.6901 132.552 12.9268 131.96 12.3799C131.367 11.8102 130.661 11.5254 129.841 11.5254C129.02 11.5254 128.314 11.8102 127.721 12.3799C127.129 12.9268 126.833 13.6901 126.833 14.6699V20.3438ZM143.075 10.0557C143.075 6.97949 143.827 4.62109 145.331 2.98047C146.858 1.33984 149.113 0.519531 152.098 0.519531C155.083 0.519531 157.328 1.33984 158.832 2.98047C160.336 4.62109 161.088 6.97949 161.088 10.0557V19.0107C161.088 22.0869 160.336 24.4453 158.832 26.0859C157.328 27.7038 155.083 28.5127 152.098 28.5127C149.113 28.5127 146.858 27.7038 145.331 26.0859C143.827 24.4453 143.075 22.0869 143.075 19.0107V10.0557ZM155.311 9.33789C155.311 8.19857 154.992 7.3099 154.354 6.67188C153.716 6.03385 152.964 5.71484 152.098 5.71484C151.233 5.71484 150.469 6.03385 149.808 6.67188C149.17 7.3099 148.851 8.19857 148.851 9.33789V19.6943C148.851 20.8337 149.17 21.7337 149.808 22.3945C150.469 23.0326 151.233 23.3516 152.098 23.3516C152.964 23.3516 153.716 23.0326 154.354 22.3945C154.992 21.7337 155.311 20.8337 155.311 19.6943V9.33789ZM177.774 1.06641H183.551C183.551 1.06641 183.551 10.0443 183.551 28H178.492L172.476 15.9688L171.759 11.9014H171.656V28H165.88C165.88 28 165.88 19.0221 165.88 1.06641H170.972L176.92 12.9609L177.672 16.4473H177.774V1.06641ZM197.366 23.3516C198.095 23.3516 198.79 23.1237 199.451 22.668C200.112 22.1895 200.454 21.5173 200.476 20.6514V14.7041H206.253V28H200.476V26.3936C199.337 27.8063 197.719 28.5127 195.623 28.5127C193.276 28.5127 191.453 27.6924 190.154 26.0518C188.878 24.3883 188.24 22.0413 188.24 19.0107V10.0557C188.24 6.97949 188.992 4.62109 190.496 2.98047C192.023 1.33984 194.278 0.519531 197.263 0.519531C199.679 0.519531 201.65 1.05501 203.177 2.12598C204.726 3.17415 205.74 4.68945 206.219 6.67188L200.75 8.55176C200.613 7.66309 200.191 6.9681 199.485 6.4668C198.779 5.96549 198.038 5.71484 197.263 5.71484C196.398 5.71484 195.634 6.03385 194.973 6.67188C194.335 7.3099 194.016 8.19857 194.016 9.33789V19.6943C194.016 20.8337 194.358 21.7337 195.042 22.3945C195.725 23.0326 196.5 23.3516 197.366 23.3516Z" fill="#8345FF"/>
<path d="M22.0865 5.73874C32.9827 5.73874 32.519 23.14 22.0865 23.14L1.77174 24.6842L2.71416 4.31579L22.0865 5.73874ZM22.4342 27.8787C39.3581 27.8787 39.7445 1 22.0865 1L3.18537 1.23684L2.71416 10.4737L1.77174 24.6842C1.77174 26.3933 1.77174 24.3261 1.77174 27.8787H22.4342Z" fill="#8345FF"/>
<path d="M11.5144 5.86C22.4107 5.86 21.947 23.2613 11.5144 23.2613H5.10035V5.86H11.5144ZM11.8622 28C28.7861 28 29.1725 1.12126 11.5144 1.12126H2.66609C1.39101 1.12126 0 2.13116 0 3.52947V25.5918C0 27.3008 1.39101 28 2.66609 28H11.8622Z" fill="#FB2D90"/>
</svg>
