<svg width="133" height="101" viewBox="0 0 133 101" fill="none" xmlns="http://www.w3.org/2000/svg">
<path d="M82.8768 17.7264C123.637 17.7264 121.902 82.82 82.8768 82.82L6.88471 88.5965L10.41 12.4035L82.8768 17.7264ZM84.1776 100.546C147.486 100.546 148.931 0 82.8768 0L12.1727 0.885965L10.41 35.4386L6.88471 88.5965C6.88471 94.9896 6.88471 87.2569 6.88471 100.546H84.1776Z" fill="white"/>
<path d="M43.3296 18.18C84.0895 18.18 82.355 83.2736 43.3296 83.2736H19.3362V18.18H43.3296ZM44.6305 101C107.938 101 109.384 0.453609 43.3296 0.453609H10.2302C5.46047 0.453609 0.25708 4.23137 0.25708 9.4621V91.9915C0.25708 98.3846 5.46047 101 10.2302 101H44.6305Z" fill="white"/>
</svg>
