<svg width="19" height="20" viewBox="0 0 19 20" fill="none" xmlns="http://www.w3.org/2000/svg">
<path d="M14.5 4.37003C14.1593 4.28897 13.8102 4.24869 13.46 4.25003C10.84 4.25003 8.70996 6.38003 8.70996 9.00003C8.70996 9.89003 8.95996 10.73 9.39996 11.45C9.76996 12.07 10.28 12.6 10.9 12.98C11.64 13.47 12.52 13.75 13.46 13.75C15.2 13.75 16.71 12.82 17.53 11.45C17.97 10.73 18.21 9.89003 18.21 9.00003C18.2107 7.92131 17.8435 6.8746 17.1689 6.03279C16.4944 5.19099 15.5529 4.60444 14.5 4.37003ZM15.41 8.57003L12.98 11C12.89 11.09 12.7 11.18 12.57 11.2L11.64 11.33C11.3 11.38 11.07 11.14 11.12 10.81L11.25 9.88003C11.27 9.75003 11.36 9.57003 11.45 9.47003L13.53 7.39003L13.88 7.04003C14.3 6.62003 14.79 6.42003 15.4 7.04003C16.01 7.66003 15.83 8.15003 15.41 8.57003Z" fill="#FB2D90"/>
<path d="M17.16 2.02V2.98C17.16 3.39 16.69 3.64 16.32 3.45C15.86 3.21 15.37 3.03 14.85 2.91C14.41 2.8 13.94 2.75 13.46 2.75C10.01 2.75 7.21 5.55 7.21 9C7.21 10.14 7.52 11.26 8.11 12.22C8.61 13.06 9.31 13.76 10.07 14.23C10.24 14.34 10.42 14.44 10.59 14.54C10.76 14.63 10.88 14.81 10.88 15V17.07C10.88 17.68 10.48 18.49 9.98 18.79L8.58 19.7C7.28 20.51 5.49 19.6 5.49 17.98V12.63C5.49 11.92 5.09 11.01 4.69 10.51L0.9 6.47C0.4 5.96 0 5.05 0 4.45V2.12C0 0.91 0.9 0 1.99 0H15.17C16.26 0 17.16 0.91 17.16 2.02Z" fill="#FB2D90"/>
</svg>
