<svg width="26" height="24" viewBox="0 0 26 24" fill="none" xmlns="http://www.w3.org/2000/svg">
<path d="M17.997 4.96V12.08C17.997 14.07 16.5741 14.84 14.8283 13.8L13.4963 13C13.1936 12.82 12.7092 12.82 12.4064 13L11.0744 13.8C9.32863 14.84 7.90578 14.07 7.90578 12.08V4.99C7.91587 3 8.92499 2 10.9331 2H14.9696C16.9677 2 17.9768 2.99 17.997 4.96Z" fill="#757474"/>
<path d="M23.0426 11.9001V14.9301C23.0426 19.9801 21.0243 22.0001 15.9787 22.0001H9.92401C4.87842 22.0001 2.86018 19.9801 2.86018 14.9301V11.9001C2.86018 9.2101 3.43538 7.3801 4.72705 6.2601C5.38298 5.7101 6.3921 6.1901 6.3921 7.0401V12.0801C6.3921 13.5701 7.00766 14.7701 8.07733 15.3701C9.15708 15.9801 10.5295 15.8701 11.8615 15.0801L12.9514 14.4301L14.0513 15.0801C14.7981 15.5301 15.5751 15.7601 16.3016 15.7601C16.8466 15.7601 17.3612 15.6301 17.8254 15.3701C18.8951 14.7701 19.5106 13.5701 19.5106 12.0801V7.0301C19.5106 6.1801 20.5298 5.7001 21.1757 6.2601C22.4674 7.3801 23.0426 9.2101 23.0426 11.9001Z" fill="#757474"/>
</svg>
