<svg width="17" height="22" viewBox="0 0 17 22" fill="none" xmlns="http://www.w3.org/2000/svg">
<path d="M16.6085 13.7391L15.5035 11.9131C15.2714 11.5061 15.0614 10.7361 15.0614 10.2851V7.50212C15.0601 6.27456 14.7096 5.07247 14.0506 4.03491C13.3916 2.99736 12.4509 2.16674 11.3373 1.63916C11.0531 1.13684 10.6386 0.719728 10.1371 0.431411C9.63553 0.143095 9.0654 -0.00583858 8.48627 0.000175166C7.28174 0.000175166 6.19877 0.64917 5.62414 1.67216C3.46925 2.73915 1.97741 4.95014 1.97741 7.50212V10.2851C1.97741 10.7361 1.76744 11.5061 1.53538 11.9021L0.419259 13.7391C-0.0227688 14.4761 -0.122225 15.2901 0.154042 16.038C0.419259 16.775 1.04915 17.347 1.8669 17.622C4.01073 18.348 6.26508 18.7 8.51942 18.7C10.7738 18.7 13.0281 18.348 15.1719 17.633C15.9455 17.38 16.5422 16.797 16.8295 16.038C17.1169 15.2791 17.0395 14.4431 16.6085 13.7391ZM11.6247 19.811C11.3923 20.4514 10.9675 21.005 10.4079 21.3966C9.84841 21.7883 9.18132 21.9989 8.49732 22C7.62431 22 6.76236 21.648 6.15457 21.021C5.80095 20.691 5.53573 20.251 5.38102 19.8C5.52468 19.822 5.66834 19.833 5.82305 19.855C6.07721 19.888 6.34243 19.921 6.60765 19.943C7.23754 19.998 7.87848 20.031 8.51942 20.031C9.14931 20.031 9.7792 19.998 10.398 19.943C10.6301 19.921 10.8622 19.91 11.0832 19.877L11.6247 19.811Z" fill="#FB2D90"/>
</svg>
