<svg width="21" height="20" viewBox="0 0 21 20" fill="none" xmlns="http://www.w3.org/2000/svg">
<path d="M14.7 0H6.3C2.1 0 0 2 0 6V19C0 19.55 0.4725 20 1.05 20H14.7C18.9 20 21 18 21 14V6C21 2 18.9 0 14.7 0ZM9.5655 14.66C9.303 14.91 8.82 15.14 8.463 15.19L6.279 15.48C6.195 15.49 6.111 15.5 6.0375 15.5C5.67 15.5 5.334 15.38 5.0925 15.15C4.7985 14.87 4.6725 14.46 4.746 14.02L5.0505 11.94C5.103 11.6 5.3445 11.13 5.607 10.89L9.5655 7.12C9.70557 7.49936 9.88496 7.86449 10.101 8.21C10.185 8.35 10.2795 8.49 10.3635 8.59C10.4685 8.74 10.5735 8.87 10.647 8.94C10.689 9 10.731 9.04 10.7415 9.06C10.9725 9.31 11.214 9.55 11.445 9.73C11.508 9.79 11.55 9.82 11.5605 9.83C11.697 9.93 11.823 10.04 11.949 10.11C12.0855 10.21 12.2325 10.3 12.3795 10.38C12.558 10.48 12.747 10.58 12.9465 10.67C13.146 10.76 13.335 10.83 13.524 10.89L9.5655 14.66V14.66ZM15.2775 9.23L14.4585 10.01C14.406 10.06 14.3325 10.09 14.259 10.09C14.238 10.09 14.196 10.09 14.175 10.08C13.2818 9.83447 12.4685 9.37732 11.8112 8.75126C11.1538 8.1252 10.6738 7.35066 10.416 6.5C10.3845 6.41 10.416 6.31 10.4895 6.24L11.319 5.45C12.6735 4.16 13.9545 4.19 15.2775 5.45C15.9495 6.09 16.2855 6.71 16.275 7.35C16.275 7.98 15.9495 8.59 15.2775 9.23Z" fill="#FB2D90"/>
</svg>
