<svg width="24" height="24" viewBox="0 0 24 24" fill="none" xmlns="http://www.w3.org/2000/svg">
<path d="M18.8 9.90991C17.67 9.90991 16.66 10.4599 16.03 11.2999C15.7079 10.8692 15.2898 10.5193 14.8091 10.2781C14.3283 10.0368 13.798 9.91077 13.26 9.90991C11.35 9.90991 9.80005 11.4699 9.80005 13.3899C9.80005 14.1299 9.92005 14.8199 10.12 15.4499C11.1 18.5599 14.14 20.4299 15.64 20.9399C15.85 21.0099 16.2 21.0099 16.41 20.9399C17.91 20.4299 20.95 18.5699 21.93 15.4499C22.14 14.8099 22.25 14.1299 22.25 13.3899C22.2531 12.9346 22.1661 12.4832 21.9942 12.0615C21.8223 11.6399 21.5687 11.2564 21.2482 10.933C20.9276 10.6097 20.5463 10.3528 20.1262 10.1773C19.706 10.0017 19.2554 9.91082 18.8 9.90991Z" fill="#757474"/>
<path d="M20.75 8.34205C20.75 8.57205 20.52 8.72205 20.3 8.66205C19.6272 8.49328 18.9258 8.47203 18.244 8.59976C17.5622 8.72749 16.9161 9.00118 16.35 9.40205C16.13 9.56205 15.83 9.56205 15.62 9.40205C14.8196 8.8152 13.8525 8.49982 12.86 8.50205C10.28 8.50205 8.18 10.6121 8.18 13.2121C8.18 16.0321 9.53 18.1421 10.89 19.5521C10.96 19.6221 10.9 19.7421 10.81 19.7021C8.08 18.7721 2 14.9121 2 8.34205C2 5.44205 4.33 3.10205 7.21 3.10205C8.92 3.10205 10.43 3.92205 11.38 5.19205C11.8653 4.54407 12.4947 4.01791 13.2185 3.65517C13.9422 3.29242 14.7404 3.10306 15.55 3.10205C18.42 3.10205 20.75 5.44205 20.75 8.34205Z" fill="#757474"/>
</svg>
