<svg width="21" height="20" viewBox="0 0 21 20" fill="none" xmlns="http://www.w3.org/2000/svg">
<path d="M18.9955 7.05474C17.096 7.05474 16.3193 5.69865 17.2639 4.03532C17.8096 3.07123 17.4843 1.84227 16.5292 1.29136L14.7136 0.242508C13.8846 -0.255431 12.8141 0.0412139 12.3208 0.878176L12.2054 1.07947C11.2609 2.7428 9.70765 2.7428 8.75262 1.07947L8.63718 0.878176C8.52405 0.677921 8.37259 0.502379 8.19163 0.361765C8.01067 0.221151 7.80381 0.118274 7.58309 0.0591199C7.36237 -3.42466e-05 7.13221 -0.0142841 6.90598 0.0171996C6.67976 0.0486833 6.462 0.125272 6.26537 0.242508L4.44978 1.29136C3.49475 1.84227 3.16942 3.08182 3.71514 4.04592C4.67017 5.69865 3.89355 7.05474 1.994 7.05474C0.902549 7.05474 0 7.95527 0 9.06769V10.9323C0 12.0341 0.892054 12.9453 1.994 12.9453C3.89355 12.9453 4.67017 14.3013 3.71514 15.9647C3.16942 16.9288 3.49475 18.1577 4.44978 18.7086L6.26537 19.7575C7.09445 20.2554 8.16492 19.9588 8.65817 19.1218L8.77361 18.9205C9.71814 17.2572 11.2714 17.2572 12.2264 18.9205L12.3418 19.1218C12.8351 19.9588 13.9055 20.2554 14.7346 19.7575L16.5502 18.7086C17.5052 18.1577 17.8306 16.9182 17.2849 15.9647C16.3298 14.3013 17.1064 12.9453 19.006 12.9453C20.0975 12.9453 21 12.0447 21 10.9323V9.06769C20.9945 8.53371 20.7812 8.02334 20.4062 7.64673C20.0312 7.27012 19.5245 7.05749 18.9955 7.05474ZM10.4948 13.4432C8.61619 13.4432 7.08396 11.8964 7.08396 10C7.08396 8.10359 8.61619 6.5568 10.4948 6.5568C12.3733 6.5568 13.9055 8.10359 13.9055 10C13.9055 11.8964 12.3733 13.4432 10.4948 13.4432Z" fill="black"/>
</svg>
