<svg width="16" height="16" viewBox="0 0 16 16" fill="none" xmlns="http://www.w3.org/2000/svg">
<path d="M15.296 3.984L12.016 0.704C11.632 0.32 10.864 0 10.32 0H5.68C5.136 0 4.368 0.32 3.984 0.704L0.704 3.984C0.32 4.368 0 5.136 0 5.68V10.32C0 10.864 0.32 11.632 0.704 12.016L3.984 15.296C4.368 15.68 5.136 16 5.68 16H10.32C10.864 16 11.632 15.68 12.016 15.296L15.296 12.016C15.68 11.632 16 10.864 16 10.32V5.68C16 5.136 15.68 4.368 15.296 3.984ZM11.224 10.376C11.456 10.608 11.456 10.992 11.224 11.224C11.104 11.344 10.952 11.4 10.8 11.4C10.648 11.4 10.496 11.344 10.376 11.224L8 8.848L5.624 11.224C5.504 11.344 5.352 11.4 5.2 11.4C5.048 11.4 4.896 11.344 4.776 11.224C4.66442 11.1111 4.60184 10.9587 4.60184 10.8C4.60184 10.6413 4.66442 10.4889 4.776 10.376L7.152 8L4.776 5.624C4.66442 5.51109 4.60184 5.35874 4.60184 5.2C4.60184 5.04126 4.66442 4.88891 4.776 4.776C5.008 4.544 5.392 4.544 5.624 4.776L8 7.152L10.376 4.776C10.608 4.544 10.992 4.544 11.224 4.776C11.456 5.008 11.456 5.392 11.224 5.624L8.848 8L11.224 10.376Z" fill="white"/>
</svg>
